<?xml version="1.0" encoding="iso-8859-1"?>
<!-- Generator: Adobe Illustrator 19.0.0, SVG Export Plug-In . SVG Version: 6.00 Build 0)  -->
<svg version="1.1" id="Capa_1" xmlns="http://www.w3.org/2000/svg" xmlns:xlink="http://www.w3.org/1999/xlink" x="0px" y="0px"
	 viewBox="0 0 490.1 490.1" style="enable-background:new 0 0 490.1 490.1;" xml:space="preserve">
<g>
	<g>
		<path d="M245,260.75c-0.6,0-1.3,0-2,0.1c-7.2,0.8-13.1,6.5-14.2,13.6c-1,6.1,1.4,11.7,5.6,15.2l-4.3,20.9
			c-0.5,2.3,1.3,4.5,3.7,4.5h11.1H256c2.4,0,4.1-2.2,3.7-4.5l-4.2-20.7c3.7-3,6-7.6,6-12.7C261.4,268.05,254.1,260.75,245,260.75z"
			/>
		<path d="M245.6,154.15c-1.3,0-2.7,0.1-4.1,0.2c-21.8,2.1-38,21.2-38,43.1v24.8h84.1h0.1l-0.1-26
			C287.7,173.05,268.8,154.15,245.6,154.15z"/>
		<path d="M245,30.25c-135.3,0-245,96.2-245,214.8c0,51.1,20.4,98.1,54.5,135c-6.3,17-17.8,36.2-38.7,50c-5.2,3.4-3.6,11.4,2.6,12.3
			c21.7,3,59.1,3.7,93.6-17c38.3,21.8,84,34.5,133.1,34.5c135.3,0,245-96.2,245-214.8S380.3,30.25,245,30.25z M340.6,333.25
			c0,10.9-8.8,19.7-19.7,19.7H169.1c-10.9,0-19.7-8.8-19.7-19.7v-91.3c0-10.9,8.8-19.7,19.7-19.7h1.7v-24.2
			c0-40.5,31.4-75,71.9-76.5c1,0,1.9-0.1,2.9-0.1c41.2,0,74.8,33.5,74.8,74.8v26h0.5c10.9,0,19.7,8.8,19.7,19.7L340.6,333.25
			L340.6,333.25z"/>
	</g>
</g>
<g>
</g>
<g>
</g>
<g>
</g>
<g>
</g>
<g>
</g>
<g>
</g>
<g>
</g>
<g>
</g>
<g>
</g>
<g>
</g>
<g>
</g>
<g>
</g>
<g>
</g>
<g>
</g>
<g>
</g>
</svg>
